<svg width="620" height="620" viewBox="0 0 620 620" fill="none" xmlns="http://www.w3.org/2000/svg">
<circle cx="310" cy="310" r="310" fill="#2C7DB4"/>
<path fill-rule="evenodd" clip-rule="evenodd" d="M82.888 521C56.1379 492.22 34.7917 458.349 20.4644 421H599.536C585.208 458.349 563.862 492.22 537.112 521H82.888Z" fill="white"/>
<circle cx="310" cy="310" r="307" stroke="#2C7DB4" stroke-width="6"/>
<path d="M121.12 441.76C123.84 441.813 126.693 441.973 129.68 442.24C132.72 442.507 135.68 443.013 138.56 443.76L137.92 450.56C135.627 450.507 132.96 450.453 129.92 450.4C126.933 450.293 124.053 450.24 121.28 450.24C119.573 450.24 118.107 450.293 116.88 450.4C115.707 450.507 114.747 450.773 114 451.2C113.253 451.627 112.693 452.293 112.32 453.2C112 454.053 111.84 455.253 111.84 456.8C111.84 459.2 112.32 460.907 113.28 461.92C114.293 462.933 115.92 463.733 118.16 464.32L129.04 467.52C133.413 468.853 136.427 470.8 138.08 473.36C139.733 475.867 140.56 479.227 140.56 483.44C140.56 486.587 140.187 489.173 139.44 491.2C138.693 493.227 137.547 494.8 136 495.92C134.453 497.04 132.427 497.84 129.92 498.32C127.413 498.8 124.4 499.04 120.88 499.04C119.067 499.04 116.56 498.933 113.36 498.72C110.213 498.507 106.613 497.973 102.56 497.12L103.2 489.92C106.347 490.027 108.987 490.133 111.12 490.24C113.253 490.293 115.093 490.32 116.64 490.32C118.187 490.32 119.627 490.32 120.96 490.32C123.413 490.32 125.333 490.16 126.72 489.84C128.107 489.52 129.067 488.853 129.6 487.84C130.187 486.827 130.48 485.36 130.48 483.44C130.48 481.787 130.267 480.507 129.84 479.6C129.467 478.64 128.827 477.893 127.92 477.36C127.013 476.827 125.84 476.373 124.4 476L113.12 472.56C108.96 471.28 106.027 469.387 104.32 466.88C102.667 464.373 101.84 461.013 101.84 456.8C101.84 453.653 102.213 451.093 102.96 449.12C103.707 447.093 104.853 445.573 106.4 444.56C107.947 443.493 109.92 442.773 112.32 442.4C114.773 441.973 117.707 441.76 121.12 441.76ZM170.416 442.08C175.269 442.08 179.082 442.613 181.856 443.68C184.629 444.693 186.602 446.48 187.776 449.04C189.002 451.547 189.616 455.12 189.616 459.76C189.616 464.4 189.029 468 187.856 470.56C186.736 473.12 184.842 474.907 182.176 475.92C179.562 476.933 176.069 477.44 171.696 477.44C169.296 477.44 166.976 477.36 164.736 477.2C162.549 477.04 160.496 476.827 158.576 476.56C156.709 476.293 155.109 476.027 153.776 475.76C152.442 475.44 151.509 475.173 150.976 474.96L151.216 469.6C154.256 469.6 157.376 469.6 160.576 469.6C163.829 469.6 167.056 469.6 170.256 469.6C172.602 469.547 174.442 469.253 175.776 468.72C177.162 468.187 178.122 467.227 178.656 465.84C179.242 464.4 179.536 462.373 179.536 459.76C179.536 457.147 179.242 455.147 178.656 453.76C178.122 452.32 177.162 451.333 175.776 450.8C174.442 450.213 172.602 449.92 170.256 449.92C165.562 449.92 161.536 449.947 158.176 450C154.816 450.053 152.522 450.133 151.296 450.24L150.176 442.8C152.309 442.587 154.309 442.427 156.176 442.32C158.096 442.213 160.149 442.16 162.336 442.16C164.576 442.107 167.269 442.08 170.416 442.08ZM160.176 442.8V498H150.176V442.8H160.176ZM220.277 442.8C221.13 442.8 221.877 443.04 222.517 443.52C223.157 444 223.61 444.64 223.877 445.44L240.597 498H230.357L217.717 455.44C217.504 454.587 217.29 453.733 217.077 452.88C216.864 452.027 216.677 451.2 216.517 450.4H214.277C214.117 451.2 213.93 452.027 213.717 452.88C213.504 453.733 213.264 454.587 212.997 455.44L200.437 498H190.197L206.917 445.44C207.13 444.64 207.557 444 208.197 443.52C208.89 443.04 209.664 442.8 210.517 442.8H220.277ZM229.557 474.4V482.24H201.157V474.4H229.557ZM267.458 441.84C269.965 441.84 272.098 441.92 273.858 442.08C275.618 442.187 277.245 442.373 278.738 442.64C280.231 442.853 281.778 443.173 283.378 443.6L282.498 451.04C280.845 450.933 279.298 450.853 277.858 450.8C276.418 450.693 274.871 450.613 273.218 450.56C271.618 450.507 269.698 450.48 267.458 450.48C264.365 450.48 261.938 451.093 260.178 452.32C258.418 453.547 257.165 455.6 256.418 458.48C255.725 461.36 255.378 465.333 255.378 470.4C255.378 475.467 255.725 479.44 256.418 482.32C257.165 485.2 258.418 487.253 260.178 488.48C261.938 489.707 264.365 490.32 267.458 490.32C271.031 490.32 274.018 490.267 276.418 490.16C278.871 490 281.271 489.787 283.618 489.52L284.498 496.88C282.098 497.627 279.618 498.16 277.058 498.48C274.498 498.8 271.298 498.96 267.458 498.96C261.911 498.96 257.485 498.053 254.178 496.24C250.871 494.373 248.471 491.36 246.978 487.2C245.538 483.04 244.818 477.44 244.818 470.4C244.818 463.36 245.538 457.76 246.978 453.6C248.471 449.44 250.871 446.453 254.178 444.64C257.485 442.773 261.911 441.84 267.458 441.84ZM304.024 442.64C306.798 442.64 309.624 442.64 312.504 442.64C315.438 442.64 318.318 442.693 321.144 442.8C323.971 442.907 326.638 443.067 329.144 443.28L328.664 450.72H307.064C305.571 450.72 304.451 451.093 303.704 451.84C303.011 452.587 302.664 453.76 302.664 455.36V485.44C302.664 487.04 303.011 488.213 303.704 488.96C304.451 489.707 305.571 490.08 307.064 490.08H328.664L329.144 497.52C326.638 497.733 323.971 497.893 321.144 498C318.318 498.053 315.438 498.08 312.504 498.08C309.624 498.133 306.798 498.16 304.024 498.16C300.611 498.16 297.864 497.227 295.784 495.36C293.758 493.44 292.718 490.88 292.664 487.68V453.12C292.718 449.92 293.758 447.387 295.784 445.52C297.864 443.6 300.611 442.64 304.024 442.64ZM294.104 465.44H325.624V472.8H294.104V465.44ZM397.469 442.8L382.349 465.28C381.816 466.133 381.256 466.88 380.669 467.52C380.083 468.107 379.443 468.667 378.749 469.2V469.44C379.496 469.973 380.243 470.613 380.989 471.36C381.736 472.107 382.349 472.907 382.829 473.76L398.509 498H387.309L369.149 469.12L386.589 442.8H397.469ZM366.269 442.8V459.12C366.269 460.827 366.136 462.507 365.869 464.16C365.656 465.813 365.309 467.467 364.829 469.12C365.203 470.667 365.523 472.267 365.789 473.92C366.109 475.52 366.269 477.067 366.269 478.56V498H356.269V442.8H366.269ZM373.309 465.6V472.88H363.069V465.6H373.309ZM415.566 442.8V498H405.566V442.8H415.566ZM448.71 442.08C452.87 442.08 456.39 442.56 459.27 443.52C462.203 444.427 464.55 445.973 466.31 448.16C468.123 450.293 469.43 453.2 470.23 456.88C471.03 460.507 471.43 465.013 471.43 470.4C471.43 475.787 471.03 480.32 470.23 484C469.43 487.627 468.123 490.533 466.31 492.72C464.55 494.853 462.203 496.4 459.27 497.36C456.39 498.267 452.87 498.72 448.71 498.72C444.71 498.72 441.003 498.64 437.59 498.48C434.177 498.373 430.95 498.213 427.91 498L432.07 490.32C434.203 490.427 436.657 490.533 439.43 490.64C442.203 490.693 445.297 490.72 448.71 490.72C451.803 490.72 454.23 490.133 455.99 488.96C457.803 487.733 459.083 485.653 459.83 482.72C460.577 479.733 460.95 475.627 460.95 470.4C460.95 465.173 460.577 461.093 459.83 458.16C459.083 455.173 457.803 453.067 455.99 451.84C454.23 450.613 451.803 450 448.71 450C445.403 450 442.443 450.027 439.83 450.08C437.27 450.133 434.763 450.16 432.31 450.16L427.91 442.8C430.95 442.587 434.15 442.427 437.51 442.32C440.923 442.16 444.657 442.08 448.71 442.08ZM437.91 442.8V498H427.91V442.8H437.91ZM498.854 441.76C501.574 441.813 504.428 441.973 507.414 442.24C510.454 442.507 513.414 443.013 516.294 443.76L515.654 450.56C513.361 450.507 510.694 450.453 507.654 450.4C504.668 450.293 501.788 450.24 499.014 450.24C497.308 450.24 495.841 450.293 494.614 450.4C493.441 450.507 492.481 450.773 491.734 451.2C490.988 451.627 490.428 452.293 490.054 453.2C489.734 454.053 489.574 455.253 489.574 456.8C489.574 459.2 490.054 460.907 491.014 461.92C492.028 462.933 493.654 463.733 495.894 464.32L506.774 467.52C511.148 468.853 514.161 470.8 515.814 473.36C517.468 475.867 518.294 479.227 518.294 483.44C518.294 486.587 517.921 489.173 517.174 491.2C516.428 493.227 515.281 494.8 513.734 495.92C512.188 497.04 510.161 497.84 507.654 498.32C505.148 498.8 502.134 499.04 498.614 499.04C496.801 499.04 494.294 498.933 491.094 498.72C487.948 498.507 484.348 497.973 480.294 497.12L480.934 489.92C484.081 490.027 486.721 490.133 488.854 490.24C490.988 490.293 492.828 490.32 494.374 490.32C495.921 490.32 497.361 490.32 498.694 490.32C501.148 490.32 503.068 490.16 504.454 489.84C505.841 489.52 506.801 488.853 507.334 487.84C507.921 486.827 508.214 485.36 508.214 483.44C508.214 481.787 508.001 480.507 507.574 479.6C507.201 478.64 506.561 477.893 505.654 477.36C504.748 476.827 503.574 476.373 502.134 476L490.854 472.56C486.694 471.28 483.761 469.387 482.054 466.88C480.401 464.373 479.574 461.013 479.574 456.8C479.574 453.653 479.948 451.093 480.694 449.12C481.441 447.093 482.588 445.573 484.134 444.56C485.681 443.493 487.654 442.773 490.054 442.4C492.508 441.973 495.441 441.76 498.854 441.76Z" fill="#2C7DB4"/>
<path d="M371.201 19.4701C371.679 18.6058 372.987 18.8839 373.072 19.8679L373.848 28.8406C373.886 29.2798 374.207 29.6424 374.638 29.7331L383.119 31.5153C384.056 31.7121 384.208 32.9857 383.343 33.3969L375.246 37.2492C374.868 37.4291 374.642 37.8254 374.68 38.2425L375.508 47.3784C375.596 48.351 374.381 48.8603 373.75 48.1155L368.125 41.4836C367.83 41.1364 367.339 41.0319 366.928 41.2293L359.093 45.0001C358.213 45.4235 357.31 44.4641 357.786 43.6114L362.258 35.6021C362.462 35.2366 362.417 34.7825 362.145 34.4644L356.315 27.6518C355.692 26.9246 356.349 25.8228 357.285 26.0239L365.757 27.8454C366.188 27.938 366.629 27.7375 366.843 27.3516L371.201 19.4701Z" fill="white" fill-opacity="0.5"/>
<path d="M309.043 13.1407C309.331 12.1958 310.669 12.1958 310.957 13.1407L313.581 21.756C313.709 22.1778 314.099 22.4656 314.54 22.4646L323.206 22.4445C324.163 22.4423 324.576 23.6566 323.816 24.2385L316.697 29.6901C316.365 29.9446 316.226 30.3793 316.35 30.7794L319.059 39.5435C319.348 40.4765 318.265 41.2273 317.492 40.6301L310.611 35.3126C310.251 35.0342 309.749 35.0342 309.389 35.3126L302.508 40.6301C301.735 41.2273 300.652 40.4765 300.941 39.5435L303.65 30.7794C303.774 30.3793 303.635 29.9446 303.303 29.6901L296.184 24.2385C295.424 23.6566 295.837 22.4423 296.794 22.4445L305.46 22.4646C305.901 22.4656 306.291 22.1778 306.419 21.756L309.043 13.1407Z" fill="white" fill-opacity="0.5"/>
<path d="M430.683 38.5899C431.33 37.8438 432.552 38.3879 432.431 39.3681L431.324 48.3059C431.27 48.7434 431.509 49.1649 431.912 49.3433L439.837 52.8499C440.712 53.2371 440.596 54.5144 439.665 54.7369L430.944 56.8215C430.537 56.9189 430.233 57.2596 430.183 57.6754L429.094 66.7839C428.978 67.7535 427.684 67.999 427.221 67.1392L423.098 59.4827C422.882 59.082 422.423 58.8775 421.98 58.9853L413.532 61.0445C412.583 61.2757 411.899 60.1495 412.542 59.4145L418.582 52.5101C418.858 52.195 418.908 51.7414 418.708 51.3737L414.421 43.4978C413.964 42.6571 414.835 41.7158 415.709 42.1071L423.617 45.6504C424.02 45.8306 424.493 45.7261 424.782 45.393L430.683 38.5899Z" fill="white" fill-opacity="0.5"/>
<path d="M484.891 69.6506C485.679 69.0554 486.762 69.8416 486.439 70.7752L483.498 79.2875C483.354 79.7043 483.5 80.1661 483.857 80.4245L490.88 85.5022C491.656 86.063 491.276 87.2881 490.32 87.3122L481.356 87.538C480.937 87.5486 480.569 87.8188 480.434 88.2151L477.475 96.8981C477.16 97.8224 475.843 97.7934 475.569 96.8562L473.128 88.5098C473 88.0729 472.593 87.7774 472.138 87.7909L463.446 88.0485C462.47 88.0775 462.035 86.8337 462.817 86.2485L470.16 80.7507C470.496 80.4997 470.639 80.0666 470.52 79.6652L467.964 71.0702C467.692 70.1528 468.74 69.4132 469.513 69.9776L476.512 75.0878C476.868 75.3478 477.353 75.3438 477.704 75.0781L484.891 69.6506Z" fill="white"/>
<path d="M531.456 111.313C532.35 110.895 533.245 111.889 532.736 112.735L528.089 120.45C527.862 120.828 527.909 121.31 528.204 121.637L534.018 128.064C534.66 128.773 534.034 129.893 533.093 129.717L524.278 128.075C523.867 127.998 523.451 128.186 523.236 128.545L518.536 136.423C518.036 137.262 516.754 136.96 516.68 135.986L516.028 127.314C515.994 126.86 515.658 126.487 515.21 126.406L506.654 124.85C505.693 124.676 505.527 123.369 506.413 122.959L514.739 119.108C515.119 118.932 515.349 118.538 515.316 118.121L514.604 109.182C514.528 108.228 515.706 107.723 516.345 108.436L522.129 114.889C522.423 115.218 522.898 115.315 523.297 115.128L531.456 111.313Z" fill="white" fill-opacity="0.5"/>
<path d="M568.342 161.746C569.304 161.522 569.973 162.681 569.298 163.402L563.149 169.983C562.848 170.305 562.794 170.786 563.015 171.167L567.365 178.663C567.846 179.49 567.001 180.455 566.117 180.088L557.836 176.649C557.45 176.488 557.004 176.585 556.719 176.892L550.484 183.621C549.82 184.337 548.629 183.775 548.759 182.807L549.924 174.19C549.985 173.738 549.734 173.303 549.313 173.13L541.267 169.83C540.364 169.46 540.473 168.147 541.425 167.93L550.37 165.894C550.778 165.802 551.085 165.464 551.139 165.049L552.301 156.158C552.425 155.209 553.683 154.959 554.16 155.789L558.475 163.305C558.695 163.687 559.139 163.88 559.568 163.781L568.342 161.746Z" fill="white" fill-opacity="0.5"/>
<path d="M593.937 218.737C594.924 218.718 595.337 219.99 594.528 220.556L587.145 225.714C586.784 225.967 586.63 226.426 586.767 226.845L589.465 235.081C589.762 235.991 588.735 236.759 587.947 236.216L580.562 231.13C580.217 230.892 579.761 230.895 579.419 231.136L571.921 236.421C571.123 236.984 570.074 236.186 570.403 235.267L573.334 227.079C573.488 226.651 573.332 226.173 572.956 225.916L565.773 221.015C564.966 220.465 565.346 219.204 566.322 219.19L575.495 219.058C575.913 219.052 576.284 218.786 576.423 218.391L579.408 209.936C579.727 209.033 581.009 209.051 581.303 209.962L583.962 218.21C584.097 218.63 584.491 218.911 584.932 218.903L593.937 218.737Z" fill="white" fill-opacity="0.5"/>
<path d="M607.122 279.807C608.092 279.995 608.232 281.325 607.322 281.71L599.028 285.22C598.622 285.392 598.377 285.81 598.424 286.248L599.35 294.865C599.452 295.816 598.287 296.354 597.629 295.659L591.463 289.149C591.176 288.845 590.729 288.752 590.344 288.917L581.911 292.528C581.013 292.912 580.153 291.914 580.666 291.083L585.236 283.684C585.475 283.297 585.422 282.797 585.108 282.468L579.1 276.181C578.425 275.475 579.059 274.32 580.017 274.509L589.016 276.288C589.427 276.369 589.845 276.185 590.063 275.828L594.741 268.178C595.24 267.361 596.491 267.645 596.589 268.597L597.475 277.218C597.52 277.657 597.847 278.014 598.28 278.098L607.122 279.807Z" fill="white" fill-opacity="0.5"/>
<path d="M607.322 342.283C608.232 342.668 608.092 343.999 607.122 344.186L598.28 345.895C597.847 345.979 597.52 346.336 597.475 346.775L596.589 355.396C596.491 356.348 595.24 356.632 594.741 355.815L590.063 348.165C589.845 347.808 589.427 347.625 589.016 347.706L580.017 349.484C579.059 349.674 578.425 348.519 579.1 347.813L585.108 341.525C585.422 341.196 585.475 340.696 585.236 340.309L580.666 332.91C580.153 332.079 581.013 331.081 581.911 331.466L590.344 335.076C590.729 335.241 591.175 335.149 591.463 334.845L597.629 328.334C598.287 327.639 599.452 328.177 599.35 329.129L598.424 337.745C598.377 338.184 598.622 338.601 599.028 338.773L607.322 342.283Z" fill="white" fill-opacity="0.5"/>
<path d="M594.528 403.444C595.337 404.01 594.924 405.282 593.937 405.263L584.932 405.097C584.491 405.089 584.097 405.37 583.962 405.79L581.303 414.038C581.009 414.949 579.727 414.967 579.408 414.064L576.423 405.609C576.284 405.214 575.913 404.948 575.495 404.942L566.322 404.81C565.346 404.796 564.966 403.535 565.773 402.984L572.956 398.084C573.332 397.827 573.488 397.349 573.334 396.921L570.403 388.733C570.074 387.814 571.123 387.016 571.921 387.579L579.419 392.864C579.761 393.105 580.217 393.108 580.562 392.87L587.947 387.784C588.735 387.241 589.762 388.009 589.465 388.919L586.767 397.155C586.63 397.574 586.784 398.033 587.145 398.286L594.528 403.444Z" fill="white" fill-opacity="0.5"/>
<path d="M26.0637 405.263C25.0762 405.282 24.6628 404.01 25.4725 403.444L32.8552 398.286C33.2167 398.033 33.3701 397.574 33.2328 397.155L30.5357 388.919C30.2379 388.009 31.265 387.241 32.0533 387.784L39.438 392.87C39.7828 393.108 40.2391 393.105 40.5813 392.864L48.0793 387.579C48.8775 387.016 49.9261 387.814 49.5969 388.733L46.6659 396.921C46.5124 397.349 46.6678 397.827 47.0438 398.084L54.2273 402.985C55.034 403.535 54.6546 404.796 53.6781 404.81L44.5056 404.942C44.087 404.948 43.7164 405.214 43.577 405.609L40.5922 414.064C40.2736 414.967 38.9911 414.949 38.6975 414.038L36.0385 405.79C35.9032 405.37 35.5091 405.089 35.0682 405.097L26.0637 405.263Z" fill="white" fill-opacity="0.5"/>
<path d="M12.8779 344.193C11.9081 344.005 11.7683 342.675 12.6779 342.29L20.9717 338.78C21.3777 338.608 21.6233 338.19 21.5762 337.752L20.6504 329.135C20.5481 328.184 21.7126 327.646 22.3707 328.341L28.5366 334.851C28.8245 335.155 29.2713 335.248 29.6562 335.083L38.0892 331.472C38.9869 331.088 39.8467 332.086 39.3336 332.917L34.7644 340.316C34.5252 340.703 34.5778 341.203 34.8922 341.532L40.8999 347.819C41.5746 348.525 40.941 349.68 39.983 349.491L30.9837 347.712C30.5729 347.631 30.1551 347.815 29.9366 348.172L25.2591 355.822C24.7598 356.639 23.509 356.355 23.4112 355.403L22.5253 346.782C22.4802 346.343 22.1532 345.986 21.7203 345.902L12.8779 344.193Z" fill="white" fill-opacity="0.5"/>
<path d="M12.6779 281.717C11.7683 281.332 11.9081 280.001 12.8779 279.814L21.7203 278.105C22.1532 278.021 22.4802 277.664 22.5253 277.225L23.4112 268.604C23.509 267.652 24.7598 267.368 25.2591 268.185L29.9366 275.835C30.1551 276.192 30.5729 276.375 30.9837 276.294L39.983 274.516C40.9411 274.326 41.5746 275.481 40.8999 276.187L34.8923 282.475C34.5778 282.804 34.5253 283.304 34.7644 283.691L39.3336 291.09C39.8467 291.921 38.9869 292.919 38.0892 292.534L29.6562 288.924C29.2713 288.759 28.8245 288.851 28.5366 289.155L22.3707 295.666C21.7126 296.361 20.5482 295.823 20.6504 294.871L21.5762 286.255C21.6233 285.816 21.3778 285.399 20.9717 285.227L12.6779 281.717Z" fill="white" fill-opacity="0.5"/>
<path d="M25.4725 220.556C24.6628 219.99 25.0762 218.718 26.0637 218.737L35.0682 218.903C35.5091 218.911 35.9032 218.63 36.0385 218.21L38.6975 209.962C38.9911 209.051 40.2736 209.033 40.5922 209.936L43.577 218.391C43.7163 218.786 44.087 219.052 44.5056 219.058L53.6781 219.19C54.6545 219.204 55.034 220.465 54.2273 221.016L47.0438 225.916C46.6678 226.173 46.5124 226.651 46.6659 227.079L49.5969 235.267C49.926 236.186 48.8775 236.984 48.0793 236.421L40.5813 231.136C40.2391 230.895 39.7828 230.892 39.438 231.13L32.0533 236.216C31.265 236.759 30.2378 235.991 30.5357 235.081L33.2328 226.845C33.3701 226.426 33.2167 225.967 32.8552 225.714L25.4725 220.556Z" fill="white" fill-opacity="0.5"/>
<path d="M50.702 163.395C50.0277 162.673 50.6965 161.515 51.6587 161.738L60.4318 163.773C60.8613 163.873 61.3054 163.68 61.5249 163.297L65.8407 155.782C66.3174 154.952 67.5755 155.201 67.6995 156.15L68.8611 165.042C68.9153 165.457 69.2225 165.794 69.6307 165.887L78.5754 167.923C79.5276 168.139 79.6365 169.452 78.733 169.823L70.6875 173.123C70.2664 173.296 70.0151 173.731 70.076 174.182L71.2408 182.8C71.3716 183.768 70.1801 184.33 69.5164 183.613L63.2811 176.885C62.9965 176.578 62.5507 176.481 62.164 176.641L53.8832 180.081C52.9993 180.448 52.1543 179.483 52.6348 178.655L56.9853 171.16C57.2066 170.779 57.1521 170.297 56.8511 169.975L50.702 163.395Z" fill="white" fill-opacity="0.5"/>
<path d="M87.2642 112.734C86.7546 111.888 87.6496 110.893 88.5444 111.312L96.7027 115.127C97.1021 115.313 97.5767 115.216 97.8709 114.888L103.655 108.434C104.294 107.722 105.472 108.227 105.396 109.181L104.684 118.12C104.651 118.537 104.881 118.931 105.261 119.107L113.587 122.957C114.473 123.367 114.307 124.674 113.346 124.849L104.79 126.404C104.343 126.486 104.006 126.859 103.972 127.313L103.32 135.985C103.246 136.958 101.964 137.261 101.464 136.422L96.7636 128.544C96.5491 128.184 96.1333 127.997 95.7217 128.073L86.9067 129.716C85.9658 129.891 85.3398 128.772 85.9819 128.062L91.7957 121.635C92.0915 121.308 92.1382 120.826 91.9107 120.449L87.2642 112.734Z" fill="white" fill-opacity="0.5"/>
<path d="M133.561 70.7827C133.238 69.8491 134.321 69.0629 135.109 69.6581L142.296 75.0856C142.648 75.3513 143.132 75.3552 143.488 75.0953L150.487 69.9851C151.26 69.4207 152.308 70.1603 152.036 71.0777L149.48 79.6727C149.361 80.074 149.504 80.5072 149.84 80.7582L157.183 86.2559C157.965 86.8412 157.53 88.085 156.554 88.056L147.862 87.7984C147.407 87.7849 147 88.0804 146.873 88.5173L144.432 96.8636C144.157 97.8009 142.84 97.8299 142.525 96.9055L139.566 88.2226C139.431 87.8263 139.063 87.5561 138.644 87.5455L129.68 87.3197C128.724 87.2956 128.344 86.0704 129.12 85.5097L136.143 80.4319C136.5 80.1736 136.646 79.7118 136.502 79.295L133.561 70.7827Z" fill="white" fill-opacity="0.5"/>
<path d="M187.569 39.3671C187.448 38.3869 188.67 37.8429 189.317 38.589L195.219 45.3921C195.507 45.7252 195.98 45.8297 196.383 45.6495L204.292 42.1062C205.165 41.7149 206.036 42.6562 205.579 43.4969L201.292 51.3727C201.092 51.7405 201.142 52.194 201.418 52.5092L207.458 59.4136C208.101 60.1486 207.417 61.2748 206.469 61.0436L198.02 58.9844C197.578 58.8766 197.119 59.0811 196.903 59.4818L192.78 67.1383C192.317 67.9981 191.022 67.7526 190.906 66.7829L189.817 57.6744C189.767 57.2587 189.464 56.9179 189.056 56.8206L180.335 54.736C179.404 54.5135 179.288 53.2362 180.163 52.8489L188.088 49.3423C188.492 49.1639 188.73 48.7425 188.676 48.305L187.569 39.3671Z" fill="white" fill-opacity="0.5"/>
<path d="M246.928 19.8692C247.013 18.8852 248.322 18.6071 248.799 19.4715L253.157 27.3529C253.371 27.7388 253.812 27.9394 254.243 27.8467L262.716 26.0252C263.651 25.8241 264.308 26.9259 263.685 27.6531L257.855 34.4657C257.583 34.7838 257.538 35.2379 257.742 35.6034L262.214 43.6128C262.69 44.4654 261.788 45.4248 260.908 45.0014L253.072 41.2306C252.662 41.0332 252.17 41.1378 251.875 41.4849L246.251 48.1168C245.619 48.8616 244.404 48.3523 244.492 47.3797L245.32 38.2438C245.358 37.8268 245.132 37.4304 244.754 37.2505L236.657 33.3982C235.792 32.987 235.944 31.7134 236.881 31.5166L245.362 29.7344C245.793 29.6437 246.115 29.2811 246.153 28.8419L246.928 19.8692Z" fill="white" fill-opacity="0.5"/>
<path d="M180 379C180 379 187.974 318.623 211.895 298.282C218.447 292.692 226.808 289.749 235.373 290.017C243.938 290.285 252.103 293.746 258.302 299.735C270.9 312.327 271.06 333.152 259.737 346.713C239.643 370.928 180 379 180 379Z" fill="white" fill-opacity="0.3" stroke="white" stroke-width="6" stroke-linecap="round" stroke-linejoin="round"/>
<path d="M294 314L294.488 394C294.488 394 343.025 385.111 358.564 361.675C375.864 335.492 357.503 282 357.503 282" fill="white" fill-opacity="0.3"/>
<path d="M294 314C316.116 305.399 337.542 294.894 357.503 282C357.503 282 375.864 335.492 358.564 361.675C343.025 385.111 294.488 394 294.488 394L294 314Z" stroke="white" stroke-width="6" stroke-linecap="round" stroke-linejoin="round"/>
<path d="M245 265.503L165 265.015C165 265.015 173.889 216.477 197.325 200.939C223.508 183.638 277 202 277 202" fill="white" fill-opacity="0.3"/>
<path d="M245 265.503C253.601 243.387 264.106 221.961 277 202C277 202 223.508 183.638 197.325 200.939C173.889 216.477 165 265.015 165 265.015L245 265.503Z" stroke="white" stroke-width="6" stroke-linecap="round" stroke-linejoin="round"/>
<path d="M277 202C264.135 222.128 253.581 243.199 245 265.5L294 314C316.262 305.404 337.407 294.887 357.5 282C387.541 263.178 412.216 236.86 429.291 205.758C446.367 174.656 455.22 139.498 455 104.004C419.568 103.784 384.296 112.846 353.249 129.952C322.201 147.058 295.789 171.906 277 202Z" fill="white" fill-opacity="0.3" stroke="white" stroke-width="6" stroke-linejoin="round"/>
<circle cx="392" cy="167" r="30" stroke="white" stroke-width="6"/>
</svg>
